<svg xmlns="http://www.w3.org/2000/svg" viewBox="0 0 1079.22 75.72"><defs><style>.cls-1{fill:#001029;}</style></defs><title>blob_cut</title><g id="Layer_2" data-name="Layer 2"><g id="Layer_6" data-name="Layer 6"><path class="cls-1" d="M927,24.88c-26.28.41-42.53,21.24-66.48,29.15-31.33,10.34-67.32-3.42-94.66-18.64S709.62,2.07,675.26,3c-19.81.54-38,7.5-56.74,12.33-44.6,11.51-94.9,10.81-138.88-1.92C460.07,7.75,440.79-.35,419.75,0c-32.22.56-56.83,20.25-85.66,30.76C308.7,40,278.54,42.13,251.22,36.51c-15.41-3.17-30.44-8.73-46.43-8.14-21.68.79-39.18,12.48-58.33,19.94a152.65,152.65,0,0,1-60.39,9.82c-16.82-.64-33.55-4-50.29-2.61C19.7,56.82,2.79,64.29,0,75.72H1079.22c-8.2-12.85-26.31-22.39-45-27.7-23.48-6.68-49.07-8.71-72.48-15.53C950.46,29.18,939.21,24.69,927,24.88Z"/></g></g></svg>